# xmcd CD database file
#
# Track frame offsets:
#	150
#	26797
#	57247
#	88372
#	103677
#	135165
#	169902
#
# Disc length: 2687 seconds
#
# Revision: 1
# Processed by: cddbd v1.5.1PL0 Copyright (c) Steve Scherf et al.
# Submitted via: CDex 1.51
#
DISCID=5a0a7d07
DTITLE=Mika Huusari Jazz Quartet - Mixbehavin'
DYEAR=1992
DGENRE=Jazz
TTITLE0=Straight, No Chaser
TTITLE1=I Remember Clifford
TTITLE2=Solar
TTITLE3=Move
TTITLE4=Let's Cool One
TTITLE5=Hassan's Dream
TTITLE6=Fairy-Tales
EXTD=YEAR: 1992
EXTT0=
EXTT1=
EXTT2=
EXTT3=
EXTT4=
EXTT5=
EXTT6=
PLAYORDER=
